<svg width="123" height="123" viewBox="0 0 123 123" fill="none" xmlns="http://www.w3.org/2000/svg">
<path d="M28.0361 122.33C21.0021 122.33 15.2934 116.621 15.2934 109.587C15.2934 102.553 21.0021 96.8447 28.0361 96.8447C35.0701 96.8447 40.7788 102.553 40.7788 109.587C40.7788 116.621 35.0701 122.33 28.0361 122.33ZM28.0361 101.942C23.831 101.942 20.3905 105.382 20.3905 109.587C20.3905 113.793 23.831 117.233 28.0361 117.233C32.2412 117.233 35.6817 113.793 35.6817 109.587C35.6817 105.382 32.2412 101.942 28.0361 101.942Z" fill="white"/>
<path d="M84.1041 122.33C77.0701 122.33 71.3614 116.621 71.3614 109.587C71.3614 102.553 77.0701 96.8447 84.1041 96.8447C91.1381 96.8447 96.8468 102.553 96.8468 109.587C96.8468 116.621 91.1381 122.33 84.1041 122.33ZM84.1041 101.942C79.899 101.942 76.4585 105.382 76.4585 109.587C76.4585 113.793 79.899 117.233 84.1041 117.233C88.3092 117.233 91.7497 113.793 91.7497 109.587C91.7497 105.382 88.3092 101.942 84.1041 101.942Z" fill="white"/>
<path d="M73.9099 107.039H38.2303V112.136H73.9099V107.039Z" fill="white"/>
<path d="M109.59 112.135H94.2983V107.038H106.965C106.659 102.935 105.41 94.6522 100.185 89.3002C96.8468 85.8597 92.2849 84.1267 86.6526 84.1267C85.2764 84.1267 84.1551 83.0308 84.1041 81.6801C84.0786 80.8645 82.8808 61.1898 56.0701 61.1898C31.8844 61.1898 28.138 81.1449 28.0106 82.0114C27.8067 83.2347 26.7363 84.1267 25.4875 84.1267C19.8552 84.1267 15.3188 85.8597 11.9548 89.3002C6.73024 94.6777 5.48145 102.96 5.17563 107.064H17.8419V112.161H2.55062C1.17441 112.161 0.0530478 111.065 0.00207685 109.689C0.00207685 109.077 -0.35472 94.6777 8.28485 85.7832C12.2096 81.731 17.3322 79.4883 23.4742 79.106C25.2582 73.0915 32.3941 56.1182 56.0446 56.1182C81.9888 56.1182 87.6466 72.8111 88.8444 79.1315C94.9099 79.5648 99.9306 81.8075 103.83 85.8087C112.469 94.7031 112.138 109.102 112.113 109.714C112.062 111.09 110.94 112.186 109.564 112.186L109.59 112.135Z" fill="white"/>
<path d="M109.59 25.4855H101.944C99.4208 25.4855 91.7497 25.4855 91.7497 12.7427C91.7497 0 99.4208 0 101.944 0H109.59C110.991 0 112.138 1.14685 112.138 2.54855V22.9369C112.138 24.3386 110.991 25.4855 109.59 25.4855ZM101.944 5.09709C99.5483 5.09709 96.8468 5.09709 96.8468 12.7427C96.8468 20.3884 99.5483 20.3884 101.944 20.3884H107.041V5.09709H101.944Z" fill="white"/>
<path d="M119.784 10.1943H109.59C108.188 10.1943 107.041 9.04741 107.041 7.64571C107.041 6.24401 108.188 5.09717 109.59 5.09717H119.784C121.185 5.09717 122.332 6.24401 122.332 7.64571C122.332 9.04741 121.185 10.1943 119.784 10.1943Z" fill="white"/>
<path d="M119.784 20.3886H109.59C108.188 20.3886 107.041 19.2418 107.041 17.84C107.041 16.4383 108.188 15.2915 109.59 15.2915H119.784C121.185 15.2915 122.332 16.4383 122.332 17.84C122.332 19.2418 121.185 20.3886 119.784 20.3886Z" fill="white"/>
<path d="M109.59 25.4855H101.944C99.4208 25.4855 91.7497 25.4855 91.7497 12.7427C91.7497 0 99.4208 0 101.944 0H109.59C110.991 0 112.138 1.14685 112.138 2.54855V22.9369C112.138 24.3386 110.991 25.4855 109.59 25.4855ZM101.944 5.09709C99.5483 5.09709 96.8468 5.09709 96.8468 12.7427C96.8468 20.3884 99.5483 20.3884 101.944 20.3884H107.041V5.09709H101.944Z" fill="white"/>
<path d="M119.784 10.1943H109.59C108.188 10.1943 107.041 9.04741 107.041 7.64571C107.041 6.24401 108.188 5.09717 109.59 5.09717H119.784C121.185 5.09717 122.332 6.24401 122.332 7.64571C122.332 9.04741 121.185 10.1943 119.784 10.1943Z" fill="white"/>
<path d="M119.784 20.3886H109.59C108.188 20.3886 107.041 19.2418 107.041 17.84C107.041 16.4383 108.188 15.2915 109.59 15.2915H119.784C121.185 15.2915 122.332 16.4383 122.332 17.84C122.332 19.2418 121.185 20.3886 119.784 20.3886Z" fill="white"/>
<path d="M105.996 95.7486C104.926 95.7486 103.957 95.086 103.575 94.0156C103.116 92.6904 103.83 91.2377 105.155 90.779C112.367 88.3069 117.235 81.5277 117.235 73.8821C117.235 61.2413 106.939 50.9452 94.2983 50.9452H86.6526C75.4135 50.9452 66.2643 41.7959 66.2643 30.5568C66.2643 19.3177 75.4135 10.1685 86.6526 10.1685H94.2983C95.7 10.1685 96.8468 11.3153 96.8468 12.717C96.8468 14.1187 95.7 15.2655 94.2983 15.2655H86.6526C78.2169 15.2655 71.3614 22.1211 71.3614 30.5568C71.3614 38.9925 78.2169 45.8481 86.6526 45.8481H94.2983C109.768 45.8481 122.332 58.4124 122.332 73.8821C122.332 83.694 116.088 92.4355 106.812 95.5957C106.531 95.6976 106.251 95.7231 105.996 95.7231V95.7486Z" fill="white"/>
</svg>
