<?xml version="1.0" encoding="UTF-8"?><svg id="Layer_2" xmlns="http://www.w3.org/2000/svg" viewBox="0 0 403.6155 74.3192"><g id="Components"><g id="d55aaaa5-aa20-4ffb-bf4f-7b5b4abc3892_4"><path d="M21.5858,0L2.5638,14.8036C.9453,16.0631.0017,17.9795.0017,20.0069v32.2672s19.0214-14.7995,19.0214-14.7995c1.6189-1.2595,2.5627-3.1761,2.5627-5.2038V0Z"/><path d="M0,52.2751l15.081,18.6721c1.2832,1.5887,3.2354,2.5149,5.3009,2.5149h32.872s-15.0769-18.6715-15.0769-18.6715c-1.2831-1.5891-3.2356-2.5155-5.3013-2.5155H0Z"/><path d="M75.5608,73.4265h-8.9983V20.6242h8.9983v52.8023Z"/><path d="M93.3348,39.9598c1.6363-3.0487,5.5778-6.0228,11.8991-6.0228,9.3713,0,14.3535,6.2467,14.3535,15.245v24.2445h-8.8503v-23.1292c0-5.2793-2.3798-8.7757-7.6591-8.7757-5.5778,0-9.0742,3.4964-9.0742,9.5193v22.3857h-8.849v-38.598h8.1801v5.1314Z"/><path d="M136.1741,39.9598c1.6363-3.0487,5.5778-6.0228,11.8991-6.0228,9.37,0,14.3522,6.2467,14.3522,15.245v24.2445h-8.849v-23.1292c0-5.2793-2.3798-8.7757-7.6604-8.7757-5.5778,0-9.0729,3.4964-9.0729,9.5193v22.3857h-8.8503v-38.598h8.1814v5.1314Z"/><path d="M168.3029,54.1654c0-10.8584,7.7351-20.2284,20.0059-20.2284,12.3455,0,20.0792,9.37,20.0792,20.2284s-7.7337,20.1538-20.0792,20.1538c-12.2708,0-20.0059-9.2967-20.0059-20.1538ZM188.3088,66.5096c6.4692,0,11.2288-4.9075,11.2288-12.3441,0-7.5125-4.7596-12.4201-11.2288-12.4201-6.3959,0-11.1555,4.9075-11.1555,12.4201,0,7.4366,4.7596,12.3441,11.1555,12.3441Z"/><path d="M214.4135,17.6501h8.8503v44.3983c0,2.0814,1.3378,2.9741,3.2726,2.9741.9661,0,1.5617-.0746,1.5617-.0746v8.404s-1.2645.2238-2.6783.2238c-7.7337,0-11.0063-3.9415-11.0063-11.6765V17.6501Z"/><path d="M239.7733,56.6932c.6702,6.0988,4.6117,10.0403,10.7838,10.0403,4.0907,0,7.5858-2.0827,8.9983-5.5032h8.925c-2.3052,7.6591-9.1475,13.089-18.1458,13.089-11.6765,0-19.2624-8.7011-19.2624-20.2284,0-11.2302,7.7351-20.1538,19.1877-20.1538s18.9639,8.7011,18.9639,20.0046c0,1.4138-.0746,2.7516-.0746,2.7516h-29.3759ZM239.9225,50.1493h20.5256c-.7435-5.3552-4.4625-8.9996-10.1882-8.9996s-9.4446,3.719-10.3374,8.9996Z"/><path d="M273.1679,62.123c0-4.4625,2.156-8.0322,6.2467-9.8923,2.3052-1.0407,4.8342-2.0067,19.7074-2.0067v-1.9347c0-4.685-2.9741-7.0648-8.2547-7.0648-4.8342,0-7.5858,2.1573-8.1801,5.727h-8.6278c.7448-6.7677,5.3552-13.0144,17.0318-13.0144,11.3035,0,16.6587,5.5765,16.6587,14.4268v25.0627h-8.1814v-4.0907c-2.7516,3.2726-6.6931,4.9835-12.8651,4.9835-9.5939,0-13.5354-5.3552-13.5354-12.1962ZM283.9517,58.1069c-1.563.8181-2.3065,2.4531-2.3065,4.3133,0,3.1233,1.9334,4.9822,6.6198,4.9822,7.362,0,10.8571-3.0487,10.8571-8.4773v-2.0081c-12.4934,0-13.9071.5197-15.1703,1.1899Z"/><path d="M313.1064,61.081h8.5519c.2238,3.3472,2.9008,5.9495,8.3294,5.9495,4.6104,0,7.1394-1.7109,7.1394-4.3879,0-8.1801-22.1619-.8928-22.1619-16.5841,0-6.4705,5.8003-12.1216,15.3196-12.1216,11.0809,0,14.7999,7.5845,15.1716,12.7905h-8.4786c-.2971-2.7516-2.3798-5.5778-6.9156-5.5778-4.3879,0-6.6184,1.7855-6.6184,4.6117,0,7.5112,22.1619.8914,22.1619,16.5095,0,6.5451-5.3552,12.0483-16.139,12.0483-11.3035,0-15.9139-6.1734-16.3602-13.2382Z"/><path d="M357.7299,56.6932c.6689,6.0988,4.6104,10.0403,10.7838,10.0403,4.0894,0,7.5845-2.0827,8.9983-5.5032h8.9236c-2.3052,7.6591-9.1475,13.089-18.1458,13.089-11.6752,0-19.2611-8.7011-19.2611-20.2284,0-11.2302,7.7337-20.1538,19.1864-20.1538s18.9639,8.7011,18.9639,20.0046c0,1.4138-.0733,2.7516-.0733,2.7516h-29.3759ZM357.8778,50.1493h20.5269c-.7448-5.3552-4.4625-8.9996-10.1895-8.9996s-9.4446,3.719-10.3374,8.9996Z"/><path d="M386.7813,26.3306c0-4.6173,3.3098-8.3362,8.3353-8.3362,5.2301,0,8.499,3.678,8.499,8.2953,0,4.5355-3.2279,8.3353-8.4171,8.3353-5.1074,0-8.4171-3.6371-8.4171-8.2944ZM401.7361,26.2897c0-3.8408-2.4514-6.5377-6.6195-6.5377-4.0044,0-6.4558,2.7779-6.4558,6.5786,0,3.718,2.4514,6.5786,6.5377,6.5786,4.1272,0,6.5377-2.7787,6.5377-6.6195ZM392.216,21.917h3.5135c1.9613,0,3.0651,1.3484,3.0651,2.8606,0,1.2257-.6137,2.1659-1.3484,2.4923l1.6749,3.4734h-2.0022l-1.3484-3.0233h-1.634v3.0233h-1.9204v-8.8263ZM395.5658,26.0442c.8174,0,1.2266-.6129,1.2266-1.2257,0-.6538-.4501-1.2257-1.2266-1.2257h-1.4294v2.4514h1.4294Z"/></g></g></svg>