<svg width="22" height="22" viewBox="0 0 22 22" fill="none" xmlns="http://www.w3.org/2000/svg">
<path d="M19.0278 19.1444L18.5856 19.5865C17.2198 20.9524 12.169 21.42 7.12737 16.3783C2.08571 11.3366 2.54395 6.29488 3.91895 4.91988L4.36908 4.46975C5.08489 3.75395 6.27618 3.87238 6.83771 4.71465L8.68952 7.49229C9.1137 8.12855 9.02981 8.97577 8.48908 9.51648L7.52792 10.4776C7.28239 10.7231 7.20015 11.0855 7.36041 11.3935C7.65256 11.955 8.26197 12.9296 9.41904 14.0866C10.5761 15.2437 11.5505 15.8531 12.112 16.1452C12.42 16.3054 12.7824 16.2232 13.0279 15.9777L13.989 15.0165C14.5297 14.4758 15.3769 14.392 16.0132 14.8161L18.7815 16.6616C19.6286 17.2263 19.7477 18.4245 19.0278 19.1444Z" fill="white"/>
</svg>
