<?xml version="1.0" encoding="UTF-8"?><svg id="Layer_2" xmlns="http://www.w3.org/2000/svg" viewBox="0 0 353.1304 443.6773"><g id="Components"><g id="c50d41a6-4d99-4a41-aba0-ab354c32fd6e_4"><g id="_Grid_Repeat_"><path d="M35.3052,0l-15.5572,12.5652c-1.3237,1.0691-2.0954,2.6957-2.0954,4.4166v27.3883s15.5567-12.5618,15.5567-12.5618c1.324-1.0691,2.0959-2.6959,2.0959-4.417V0Z"/><path d="M17.6526,44.3701l-15.5572,12.5652C.7717,58.0044,0,59.631,0,61.3519v27.3883s15.5567-12.5618,15.5567-12.5618c1.324-1.0691,2.0959-2.6959,2.0959-4.417v-27.3913Z"/></g><g id="_Grid_Repeat_-2"><path d="M70.6191,0l-15.5572,12.5652c-1.3237,1.0691-2.0954,2.6957-2.0954,4.4166v27.3883s15.5567-12.5618,15.5567-12.5618c1.324-1.0691,2.0959-2.6959,2.0959-4.417V0Z"/><path d="M52.9665,44.3701l-15.5572,12.5652c-1.3237,1.0691-2.0954,2.6957-2.0954,4.4166v27.3883s15.5567-12.5618,15.5567-12.5618c1.324-1.0691,2.0959-2.6959,2.0959-4.417v-27.3913Z"/></g><g id="_Grid_Repeat_-3"><path d="M105.933,0l-15.5572,12.5652c-1.3237,1.0691-2.0954,2.6957-2.0954,4.4166v27.3883s15.5567-12.5618,15.5567-12.5618c1.324-1.0691,2.0959-2.6959,2.0959-4.417V0Z"/><path d="M88.2804,44.3701l-15.5572,12.5652c-1.3237,1.0691-2.0954,2.6957-2.0954,4.4166v27.3883s15.5567-12.5618,15.5567-12.5618c1.324-1.0691,2.0959-2.6959,2.0959-4.417v-27.3913Z"/></g><g id="_Grid_Repeat_-4"><path d="M141.2469,0l-15.5572,12.5652c-1.3237,1.0691-2.0954,2.6957-2.0954,4.4166v27.3883s15.5567-12.5618,15.5567-12.5618c1.324-1.0691,2.0959-2.6959,2.0959-4.417V0Z"/><path d="M123.5943,44.3701l-15.5572,12.5652c-1.3237,1.0691-2.0954,2.6957-2.0954,4.4166v27.3883s15.5567-12.5618,15.5567-12.5618c1.324-1.0691,2.0959-2.6959,2.0959-4.417v-27.3913Z"/></g><g id="_Grid_Repeat_-5"><path d="M176.5609,0l-15.5572,12.5652c-1.3237,1.0691-2.0954,2.6957-2.0954,4.4166v27.3883s15.5567-12.5618,15.5567-12.5618c1.324-1.0691,2.0959-2.6959,2.0959-4.417V0Z"/><path d="M158.9082,44.3701l-15.5572,12.5652c-1.3237,1.0691-2.0954,2.6957-2.0954,4.4166v27.3883s15.5567-12.5618,15.5567-12.5618c1.324-1.0691,2.0959-2.6959,2.0959-4.417v-27.3913Z"/></g><g id="_Grid_Repeat_-6"><path d="M211.8748,0l-15.5572,12.5652c-1.3237,1.0691-2.0954,2.6957-2.0954,4.4166v27.3883s15.5567-12.5618,15.5567-12.5618c1.324-1.0691,2.0959-2.6959,2.0959-4.417V0Z"/><path d="M194.2221,44.3701l-15.5572,12.5652c-1.3237,1.0691-2.0954,2.6957-2.0954,4.4166v27.3883s15.5567-12.5618,15.5567-12.5618c1.324-1.0691,2.0959-2.6959,2.0959-4.417v-27.3913Z"/></g><g id="_Grid_Repeat_-7"><path d="M247.1887,0l-15.5572,12.5652c-1.3237,1.0691-2.0954,2.6957-2.0954,4.4166v27.3883s15.5567-12.5618,15.5567-12.5618c1.324-1.0691,2.0959-2.6959,2.0959-4.417V0Z"/><path d="M229.536,44.3701l-15.5572,12.5652c-1.3237,1.0691-2.0954,2.6957-2.0954,4.4166v27.3883s15.5567-12.5618,15.5567-12.5618c1.324-1.0691,2.0959-2.6959,2.0959-4.417v-27.3913Z"/></g><g id="_Grid_Repeat_-8"><path d="M282.5026,0l-15.5572,12.5652c-1.3237,1.0691-2.0954,2.6957-2.0954,4.4166v27.3883s15.5567-12.5618,15.5567-12.5618c1.324-1.0691,2.0959-2.6959,2.0959-4.417V0Z"/><path d="M264.8499,44.3701l-15.5572,12.5652c-1.3237,1.0691-2.0954,2.6957-2.0954,4.4166v27.3883s15.5567-12.5618,15.5567-12.5618c1.324-1.0691,2.0959-2.6959,2.0959-4.417v-27.3913Z"/></g><g id="_Grid_Repeat_-9"><path d="M317.8165,0l-15.5572,12.5652c-1.3237,1.0691-2.0954,2.6957-2.0954,4.4166v27.3883s15.5567-12.5618,15.5567-12.5618c1.324-1.0691,2.0959-2.6959,2.0959-4.417V0Z"/><path d="M300.1638,44.3701l-15.5572,12.5652c-1.3237,1.0691-2.0954,2.6957-2.0954,4.4166v27.3883s15.5567-12.5618,15.5567-12.5618c1.324-1.0691,2.0959-2.6959,2.0959-4.417v-27.3913Z"/></g><g id="_Grid_Repeat_-10"><path d="M353.1304,0l-15.5572,12.5652c-1.3237,1.0691-2.0954,2.6957-2.0954,4.4166v27.3883s15.5567-12.5618,15.5567-12.5618c1.324-1.0691,2.0959-2.6959,2.0959-4.417V0Z"/><path d="M335.4778,44.3701l-15.5572,12.5652c-1.3237,1.0691-2.0954,2.6957-2.0954,4.4166v27.3883s15.5567-12.5618,15.5567-12.5618c1.324-1.0691,2.0959-2.6959,2.0959-4.417v-27.3913Z"/></g><g id="_Grid_Repeat_-11"><path d="M35.3052,88.7343l-15.5572,12.5652c-1.3237,1.0691-2.0954,2.6957-2.0954,4.4166v27.3883s15.5567-12.5618,15.5567-12.5618c1.324-1.0691,2.0959-2.6959,2.0959-4.417v-27.3913Z"/><path d="M17.6526,133.1044l-15.5572,12.5652C.7717,146.7387,0,148.3653,0,150.0862v27.3883s15.5567-12.5618,15.5567-12.5618c1.324-1.0691,2.0959-2.6959,2.0959-4.417v-27.3913Z"/></g><g id="_Grid_Repeat_-12"><path d="M70.6191,88.7343l-15.5572,12.5652c-1.3237,1.0691-2.0954,2.6957-2.0954,4.4166v27.3883s15.5567-12.5618,15.5567-12.5618c1.324-1.0691,2.0959-2.6959,2.0959-4.417v-27.3913Z"/><path d="M52.9665,133.1044l-15.5572,12.5652c-1.3237,1.0691-2.0954,2.6957-2.0954,4.4166v27.3883s15.5567-12.5618,15.5567-12.5618c1.324-1.0691,2.0959-2.6959,2.0959-4.417v-27.3913Z"/></g><g id="_Grid_Repeat_-13"><path d="M105.933,88.7343l-15.5572,12.5652c-1.3237,1.0691-2.0954,2.6957-2.0954,4.4166v27.3883s15.5567-12.5618,15.5567-12.5618c1.324-1.0691,2.0959-2.6959,2.0959-4.417v-27.3913Z"/><path d="M88.2804,133.1044l-15.5572,12.5652c-1.3237,1.0691-2.0954,2.6957-2.0954,4.4166v27.3883s15.5567-12.5618,15.5567-12.5618c1.324-1.0691,2.0959-2.6959,2.0959-4.417v-27.3913Z"/></g><g id="_Grid_Repeat_-14"><path d="M141.2469,88.7343l-15.5572,12.5652c-1.3237,1.0691-2.0954,2.6957-2.0954,4.4166v27.3883s15.5567-12.5618,15.5567-12.5618c1.324-1.0691,2.0959-2.6959,2.0959-4.417v-27.3913Z"/><path d="M123.5943,133.1044l-15.5572,12.5652c-1.3237,1.0691-2.0954,2.6957-2.0954,4.4166v27.3883s15.5567-12.5618,15.5567-12.5618c1.324-1.0691,2.0959-2.6959,2.0959-4.417v-27.3913Z"/></g><g id="_Grid_Repeat_-15"><path d="M176.5609,88.7343l-15.5572,12.5652c-1.3237,1.0691-2.0954,2.6957-2.0954,4.4166v27.3883s15.5567-12.5618,15.5567-12.5618c1.324-1.0691,2.0959-2.6959,2.0959-4.417v-27.3913Z"/><path d="M158.9082,133.1044l-15.5572,12.5652c-1.3237,1.0691-2.0954,2.6957-2.0954,4.4166v27.3883s15.5567-12.5618,15.5567-12.5618c1.324-1.0691,2.0959-2.6959,2.0959-4.417v-27.3913Z"/></g><g id="_Grid_Repeat_-16"><path d="M211.8748,88.7343l-15.5572,12.5652c-1.3237,1.0691-2.0954,2.6957-2.0954,4.4166v27.3883s15.5567-12.5618,15.5567-12.5618c1.324-1.0691,2.0959-2.6959,2.0959-4.417v-27.3913Z"/><path d="M194.2221,133.1044l-15.5572,12.5652c-1.3237,1.0691-2.0954,2.6957-2.0954,4.4166v27.3883s15.5567-12.5618,15.5567-12.5618c1.324-1.0691,2.0959-2.6959,2.0959-4.417v-27.3913Z"/></g><g id="_Grid_Repeat_-17"><path d="M247.1887,88.7343l-15.5572,12.5652c-1.3237,1.0691-2.0954,2.6957-2.0954,4.4166v27.3883s15.5567-12.5618,15.5567-12.5618c1.324-1.0691,2.0959-2.6959,2.0959-4.417v-27.3913Z"/><path d="M229.536,133.1044l-15.5572,12.5652c-1.3237,1.0691-2.0954,2.6957-2.0954,4.4166v27.3883s15.5567-12.5618,15.5567-12.5618c1.324-1.0691,2.0959-2.6959,2.0959-4.417v-27.3913Z"/></g><g id="_Grid_Repeat_-18"><path d="M282.5026,88.7343l-15.5572,12.5652c-1.3237,1.0691-2.0954,2.6957-2.0954,4.4166v27.3883s15.5567-12.5618,15.5567-12.5618c1.324-1.0691,2.0959-2.6959,2.0959-4.417v-27.3913Z"/><path d="M264.8499,133.1044l-15.5572,12.5652c-1.3237,1.0691-2.0954,2.6957-2.0954,4.4166v27.3883s15.5567-12.5618,15.5567-12.5618c1.324-1.0691,2.0959-2.6959,2.0959-4.417v-27.3913Z"/></g><g id="_Grid_Repeat_-19"><path d="M317.8165,88.7343l-15.5572,12.5652c-1.3237,1.0691-2.0954,2.6957-2.0954,4.4166v27.3883s15.5567-12.5618,15.5567-12.5618c1.324-1.0691,2.0959-2.6959,2.0959-4.417v-27.3913Z"/><path d="M300.1638,133.1044l-15.5572,12.5652c-1.3237,1.0691-2.0954,2.6957-2.0954,4.4166v27.3883s15.5567-12.5618,15.5567-12.5618c1.324-1.0691,2.0959-2.6959,2.0959-4.417v-27.3913Z"/></g><g id="_Grid_Repeat_-20"><path d="M353.1304,88.7343l-15.5572,12.5652c-1.3237,1.0691-2.0954,2.6957-2.0954,4.4166v27.3883s15.5567-12.5618,15.5567-12.5618c1.324-1.0691,2.0959-2.6959,2.0959-4.417v-27.3913Z"/><path d="M335.4778,133.1044l-15.5572,12.5652c-1.3237,1.0691-2.0954,2.6957-2.0954,4.4166v27.3883s15.5567-12.5618,15.5567-12.5618c1.324-1.0691,2.0959-2.6959,2.0959-4.417v-27.3913Z"/></g><g id="_Grid_Repeat_-21"><path d="M35.3052,177.4686l-15.5572,12.5652c-1.3237,1.0691-2.0954,2.6957-2.0954,4.4166v27.3883s15.5567-12.5618,15.5567-12.5618c1.324-1.0691,2.0959-2.6959,2.0959-4.417v-27.3913Z"/><path d="M17.6526,221.8387l-15.5572,12.5652C.7717,235.473,0,237.0996,0,238.8204v27.3883s15.5567-12.5618,15.5567-12.5618c1.324-1.0691,2.0959-2.6959,2.0959-4.417v-27.3913Z"/></g><g id="_Grid_Repeat_-22"><path d="M70.6191,177.4686l-15.5572,12.5652c-1.3237,1.0691-2.0954,2.6957-2.0954,4.4166v27.3883s15.5567-12.5618,15.5567-12.5618c1.324-1.0691,2.0959-2.6959,2.0959-4.417v-27.3913Z"/><path d="M52.9665,221.8387l-15.5572,12.5652c-1.3237,1.0691-2.0954,2.6957-2.0954,4.4166v27.3883s15.5567-12.5618,15.5567-12.5618c1.324-1.0691,2.0959-2.6959,2.0959-4.417v-27.3913Z"/></g><g id="_Grid_Repeat_-23"><path d="M105.933,177.4686l-15.5572,12.5652c-1.3237,1.0691-2.0954,2.6957-2.0954,4.4166v27.3883s15.5567-12.5618,15.5567-12.5618c1.324-1.0691,2.0959-2.6959,2.0959-4.417v-27.3913Z"/><path d="M88.2804,221.8387l-15.5572,12.5652c-1.3237,1.0691-2.0954,2.6957-2.0954,4.4166v27.3883s15.5567-12.5618,15.5567-12.5618c1.324-1.0691,2.0959-2.6959,2.0959-4.417v-27.3913Z"/></g><g id="_Grid_Repeat_-24"><path d="M141.2469,177.4686l-15.5572,12.5652c-1.3237,1.0691-2.0954,2.6957-2.0954,4.4166v27.3883s15.5567-12.5618,15.5567-12.5618c1.324-1.0691,2.0959-2.6959,2.0959-4.417v-27.3913Z"/><path d="M123.5943,221.8387l-15.5572,12.5652c-1.3237,1.0691-2.0954,2.6957-2.0954,4.4166v27.3883s15.5567-12.5618,15.5567-12.5618c1.324-1.0691,2.0959-2.6959,2.0959-4.417v-27.3913Z"/></g><g id="_Grid_Repeat_-25"><path d="M176.5609,177.4686l-15.5572,12.5652c-1.3237,1.0691-2.0954,2.6957-2.0954,4.4166v27.3883s15.5567-12.5618,15.5567-12.5618c1.324-1.0691,2.0959-2.6959,2.0959-4.417v-27.3913Z"/><path d="M158.9082,221.8387l-15.5572,12.5652c-1.3237,1.0691-2.0954,2.6957-2.0954,4.4166v27.3883s15.5567-12.5618,15.5567-12.5618c1.324-1.0691,2.0959-2.6959,2.0959-4.417v-27.3913Z"/></g><g id="_Grid_Repeat_-26"><path d="M211.8748,177.4686l-15.5572,12.5652c-1.3237,1.0691-2.0954,2.6957-2.0954,4.4166v27.3883s15.5567-12.5618,15.5567-12.5618c1.324-1.0691,2.0959-2.6959,2.0959-4.417v-27.3913Z"/><path d="M194.2221,221.8387l-15.5572,12.5652c-1.3237,1.0691-2.0954,2.6957-2.0954,4.4166v27.3883s15.5567-12.5618,15.5567-12.5618c1.324-1.0691,2.0959-2.6959,2.0959-4.417v-27.3913Z"/></g><g id="_Grid_Repeat_-27"><path d="M247.1887,177.4686l-15.5572,12.5652c-1.3237,1.0691-2.0954,2.6957-2.0954,4.4166v27.3883s15.5567-12.5618,15.5567-12.5618c1.324-1.0691,2.0959-2.6959,2.0959-4.417v-27.3913Z"/><path d="M229.536,221.8387l-15.5572,12.5652c-1.3237,1.0691-2.0954,2.6957-2.0954,4.4166v27.3883s15.5567-12.5618,15.5567-12.5618c1.324-1.0691,2.0959-2.6959,2.0959-4.417v-27.3913Z"/></g><g id="_Grid_Repeat_-28"><path d="M282.5026,177.4686l-15.5572,12.5652c-1.3237,1.0691-2.0954,2.6957-2.0954,4.4166v27.3883s15.5567-12.5618,15.5567-12.5618c1.324-1.0691,2.0959-2.6959,2.0959-4.417v-27.3913Z"/><path d="M264.8499,221.8387l-15.5572,12.5652c-1.3237,1.0691-2.0954,2.6957-2.0954,4.4166v27.3883s15.5567-12.5618,15.5567-12.5618c1.324-1.0691,2.0959-2.6959,2.0959-4.417v-27.3913Z"/></g><g id="_Grid_Repeat_-29"><path d="M317.8165,177.4686l-15.5572,12.5652c-1.3237,1.0691-2.0954,2.6957-2.0954,4.4166v27.3883s15.5567-12.5618,15.5567-12.5618c1.324-1.0691,2.0959-2.6959,2.0959-4.417v-27.3913Z"/><path d="M300.1638,221.8387l-15.5572,12.5652c-1.3237,1.0691-2.0954,2.6957-2.0954,4.4166v27.3883s15.5567-12.5618,15.5567-12.5618c1.324-1.0691,2.0959-2.6959,2.0959-4.417v-27.3913Z"/></g><g id="_Grid_Repeat_-30"><path d="M353.1304,177.4686l-15.5572,12.5652c-1.3237,1.0691-2.0954,2.6957-2.0954,4.4166v27.3883s15.5567-12.5618,15.5567-12.5618c1.324-1.0691,2.0959-2.6959,2.0959-4.417v-27.3913Z"/><path d="M335.4778,221.8387l-15.5572,12.5652c-1.3237,1.0691-2.0954,2.6957-2.0954,4.4166v27.3883s15.5567-12.5618,15.5567-12.5618c1.324-1.0691,2.0959-2.6959,2.0959-4.417v-27.3913Z"/></g><g id="_Grid_Repeat_-31"><path d="M35.3052,266.2028l-15.5572,12.5652c-1.3237,1.0691-2.0954,2.6957-2.0954,4.4166v27.3883s15.5567-12.5618,15.5567-12.5618c1.324-1.0691,2.0959-2.6959,2.0959-4.417v-27.3913Z"/><path d="M17.6526,310.5729l-15.5572,12.5652C.7717,324.2073,0,325.8338,0,327.5547v27.3883s15.5567-12.5618,15.5567-12.5618c1.324-1.0691,2.0959-2.6959,2.0959-4.417v-27.3913Z"/></g><g id="_Grid_Repeat_-32"><path d="M70.6191,266.2028l-15.5572,12.5652c-1.3237,1.0691-2.0954,2.6957-2.0954,4.4166v27.3883s15.5567-12.5618,15.5567-12.5618c1.324-1.0691,2.0959-2.6959,2.0959-4.417v-27.3913Z"/><path d="M52.9665,310.5729l-15.5572,12.5652c-1.3237,1.0691-2.0954,2.6957-2.0954,4.4166v27.3883s15.5567-12.5618,15.5567-12.5618c1.324-1.0691,2.0959-2.6959,2.0959-4.417v-27.3913Z"/></g><g id="_Grid_Repeat_-33"><path d="M105.933,266.2028l-15.5572,12.5652c-1.3237,1.0691-2.0954,2.6957-2.0954,4.4166v27.3883s15.5567-12.5618,15.5567-12.5618c1.324-1.0691,2.0959-2.6959,2.0959-4.417v-27.3913Z"/><path d="M88.2804,310.5729l-15.5572,12.5652c-1.3237,1.0691-2.0954,2.6957-2.0954,4.4166v27.3883s15.5567-12.5618,15.5567-12.5618c1.324-1.0691,2.0959-2.6959,2.0959-4.417v-27.3913Z"/></g><g id="_Grid_Repeat_-34"><path d="M141.2469,266.2028l-15.5572,12.5652c-1.3237,1.0691-2.0954,2.6957-2.0954,4.4166v27.3883s15.5567-12.5618,15.5567-12.5618c1.324-1.0691,2.0959-2.6959,2.0959-4.417v-27.3913Z"/><path d="M123.5943,310.5729l-15.5572,12.5652c-1.3237,1.0691-2.0954,2.6957-2.0954,4.4166v27.3883s15.5567-12.5618,15.5567-12.5618c1.324-1.0691,2.0959-2.6959,2.0959-4.417v-27.3913Z"/></g><g id="_Grid_Repeat_-35"><path d="M176.5609,266.2028l-15.5572,12.5652c-1.3237,1.0691-2.0954,2.6957-2.0954,4.4166v27.3883s15.5567-12.5618,15.5567-12.5618c1.324-1.0691,2.0959-2.6959,2.0959-4.417v-27.3913Z"/><path d="M158.9082,310.5729l-15.5572,12.5652c-1.3237,1.0691-2.0954,2.6957-2.0954,4.4166v27.3883s15.5567-12.5618,15.5567-12.5618c1.324-1.0691,2.0959-2.6959,2.0959-4.417v-27.3913Z"/></g><g id="_Grid_Repeat_-36"><path d="M211.8748,266.2028l-15.5572,12.5652c-1.3237,1.0691-2.0954,2.6957-2.0954,4.4166v27.3883s15.5567-12.5618,15.5567-12.5618c1.324-1.0691,2.0959-2.6959,2.0959-4.417v-27.3913Z"/><path d="M194.2221,310.5729l-15.5572,12.5652c-1.3237,1.0691-2.0954,2.6957-2.0954,4.4166v27.3883s15.5567-12.5618,15.5567-12.5618c1.324-1.0691,2.0959-2.6959,2.0959-4.417v-27.3913Z"/></g><g id="_Grid_Repeat_-37"><path d="M247.1887,266.2028l-15.5572,12.5652c-1.3237,1.0691-2.0954,2.6957-2.0954,4.4166v27.3883s15.5567-12.5618,15.5567-12.5618c1.324-1.0691,2.0959-2.6959,2.0959-4.417v-27.3913Z"/><path d="M229.536,310.5729l-15.5572,12.5652c-1.3237,1.0691-2.0954,2.6957-2.0954,4.4166v27.3883s15.5567-12.5618,15.5567-12.5618c1.324-1.0691,2.0959-2.6959,2.0959-4.417v-27.3913Z"/></g><g id="_Grid_Repeat_-38"><path d="M282.5026,266.2028l-15.5572,12.5652c-1.3237,1.0691-2.0954,2.6957-2.0954,4.4166v27.3883s15.5567-12.5618,15.5567-12.5618c1.324-1.0691,2.0959-2.6959,2.0959-4.417v-27.3913Z"/><path d="M264.8499,310.5729l-15.5572,12.5652c-1.3237,1.0691-2.0954,2.6957-2.0954,4.4166v27.3883s15.5567-12.5618,15.5567-12.5618c1.324-1.0691,2.0959-2.6959,2.0959-4.417v-27.3913Z"/></g><g id="_Grid_Repeat_-39"><path d="M317.8165,266.2028l-15.5572,12.5652c-1.3237,1.0691-2.0954,2.6957-2.0954,4.4166v27.3883s15.5567-12.5618,15.5567-12.5618c1.324-1.0691,2.0959-2.6959,2.0959-4.417v-27.3913Z"/><path d="M300.1638,310.5729l-15.5572,12.5652c-1.3237,1.0691-2.0954,2.6957-2.0954,4.4166v27.3883s15.5567-12.5618,15.5567-12.5618c1.324-1.0691,2.0959-2.6959,2.0959-4.417v-27.3913Z"/></g><g id="_Grid_Repeat_-40"><path d="M353.1304,266.2028l-15.5572,12.5652c-1.3237,1.0691-2.0954,2.6957-2.0954,4.4166v27.3883s15.5567-12.5618,15.5567-12.5618c1.324-1.0691,2.0959-2.6959,2.0959-4.417v-27.3913Z"/><path d="M335.4778,310.5729l-15.5572,12.5652c-1.3237,1.0691-2.0954,2.6957-2.0954,4.4166v27.3883s15.5567-12.5618,15.5567-12.5618c1.324-1.0691,2.0959-2.6959,2.0959-4.417v-27.3913Z"/></g><g id="_Grid_Repeat_-41"><path d="M35.3052,354.9371l-15.5572,12.5652c-1.3237,1.0691-2.0954,2.6957-2.0954,4.4166v27.3883s15.5567-12.5618,15.5567-12.5618c1.324-1.0691,2.0959-2.6959,2.0959-4.417v-27.3913Z"/><path d="M17.6526,399.3072l-15.5572,12.5652C.7717,412.9415,0,414.5681,0,416.289v27.3883s15.5567-12.5618,15.5567-12.5618c1.324-1.0691,2.0959-2.6959,2.0959-4.417v-27.3913Z"/></g><g id="_Grid_Repeat_-42"><path d="M70.6191,354.9371l-15.5572,12.5652c-1.3237,1.0691-2.0954,2.6957-2.0954,4.4166v27.3883s15.5567-12.5618,15.5567-12.5618c1.324-1.0691,2.0959-2.6959,2.0959-4.417v-27.3913Z"/><path d="M52.9665,399.3072l-15.5572,12.5652c-1.3237,1.0691-2.0954,2.6957-2.0954,4.4166v27.3883s15.5567-12.5618,15.5567-12.5618c1.324-1.0691,2.0959-2.6959,2.0959-4.417v-27.3913Z"/></g><g id="_Grid_Repeat_-43"><path d="M105.933,354.9371l-15.5572,12.5652c-1.3237,1.0691-2.0954,2.6957-2.0954,4.4166v27.3883s15.5567-12.5618,15.5567-12.5618c1.324-1.0691,2.0959-2.6959,2.0959-4.417v-27.3913Z"/><path d="M88.2804,399.3072l-15.5572,12.5652c-1.3237,1.0691-2.0954,2.6957-2.0954,4.4166v27.3883s15.5567-12.5618,15.5567-12.5618c1.324-1.0691,2.0959-2.6959,2.0959-4.417v-27.3913Z"/></g><g id="_Grid_Repeat_-44"><path d="M141.2469,354.9371l-15.5572,12.5652c-1.3237,1.0691-2.0954,2.6957-2.0954,4.4166v27.3883s15.5567-12.5618,15.5567-12.5618c1.324-1.0691,2.0959-2.6959,2.0959-4.417v-27.3913Z"/><path d="M123.5943,399.3072l-15.5572,12.5652c-1.3237,1.0691-2.0954,2.6957-2.0954,4.4166v27.3883s15.5567-12.5618,15.5567-12.5618c1.324-1.0691,2.0959-2.6959,2.0959-4.417v-27.3913Z"/></g><g id="_Grid_Repeat_-45"><path d="M176.5609,354.9371l-15.5572,12.5652c-1.3237,1.0691-2.0954,2.6957-2.0954,4.4166v27.3883s15.5567-12.5618,15.5567-12.5618c1.324-1.0691,2.0959-2.6959,2.0959-4.417v-27.3913Z"/><path d="M158.9082,399.3072l-15.5572,12.5652c-1.3237,1.0691-2.0954,2.6957-2.0954,4.4166v27.3883s15.5567-12.5618,15.5567-12.5618c1.324-1.0691,2.0959-2.6959,2.0959-4.417v-27.3913Z"/></g><g id="_Grid_Repeat_-46"><path d="M211.8748,354.9371l-15.5572,12.5652c-1.3237,1.0691-2.0954,2.6957-2.0954,4.4166v27.3883s15.5567-12.5618,15.5567-12.5618c1.324-1.0691,2.0959-2.6959,2.0959-4.417v-27.3913Z"/><path d="M194.2221,399.3072l-15.5572,12.5652c-1.3237,1.0691-2.0954,2.6957-2.0954,4.4166v27.3883s15.5567-12.5618,15.5567-12.5618c1.324-1.0691,2.0959-2.6959,2.0959-4.417v-27.3913Z"/></g><g id="_Grid_Repeat_-47"><path d="M247.1887,354.9371l-15.5572,12.5652c-1.3237,1.0691-2.0954,2.6957-2.0954,4.4166v27.3883s15.5567-12.5618,15.5567-12.5618c1.324-1.0691,2.0959-2.6959,2.0959-4.417v-27.3913Z"/><path d="M229.536,399.3072l-15.5572,12.5652c-1.3237,1.0691-2.0954,2.6957-2.0954,4.4166v27.3883s15.5567-12.5618,15.5567-12.5618c1.324-1.0691,2.0959-2.6959,2.0959-4.417v-27.3913Z"/></g><g id="_Grid_Repeat_-48"><path d="M282.5026,354.9371l-15.5572,12.5652c-1.3237,1.0691-2.0954,2.6957-2.0954,4.4166v27.3883s15.5567-12.5618,15.5567-12.5618c1.324-1.0691,2.0959-2.6959,2.0959-4.417v-27.3913Z"/><path d="M264.8499,399.3072l-15.5572,12.5652c-1.3237,1.0691-2.0954,2.6957-2.0954,4.4166v27.3883s15.5567-12.5618,15.5567-12.5618c1.324-1.0691,2.0959-2.6959,2.0959-4.417v-27.3913Z"/></g><g id="_Grid_Repeat_-49"><path d="M317.8165,354.9371l-15.5572,12.5652c-1.3237,1.0691-2.0954,2.6957-2.0954,4.4166v27.3883s15.5567-12.5618,15.5567-12.5618c1.324-1.0691,2.0959-2.6959,2.0959-4.417v-27.3913Z"/><path d="M300.1638,399.3072l-15.5572,12.5652c-1.3237,1.0691-2.0954,2.6957-2.0954,4.4166v27.3883s15.5567-12.5618,15.5567-12.5618c1.324-1.0691,2.0959-2.6959,2.0959-4.417v-27.3913Z"/></g><g id="_Grid_Repeat_-50"><path d="M353.1304,354.9371l-15.5572,12.5652c-1.3237,1.0691-2.0954,2.6957-2.0954,4.4166v27.3883s15.5567-12.5618,15.5567-12.5618c1.324-1.0691,2.0959-2.6959,2.0959-4.417v-27.3913Z"/><path d="M335.4778,399.3072l-15.5572,12.5652c-1.3237,1.0691-2.0954,2.6957-2.0954,4.4166v27.3883s15.5567-12.5618,15.5567-12.5618c1.324-1.0691,2.0959-2.6959,2.0959-4.417v-27.3913Z"/></g></g></g></svg>