<svg xmlns="http://www.w3.org/2000/svg" width="640" height="360" viewBox="0 0 640 360" fill="#ffffff">
  <g>
  <path d="M447.299 -90.821L362.77 -25.0697C355.575 -19.4584 351.367 -10.951 351.367 -1.94582V141.413L435.896 75.6616C443.09 70.0504 447.299 61.543 447.299 52.5378V-90.821Z" fill="current" />
  <path d="M639.162 -90.821L554.634 -25.0697C547.439 -19.4584 543.23 -10.951 543.23 -1.94582V141.413L627.759 75.6616C634.954 70.0504 639.162 61.543 639.162 52.5378V-90.821Z" fill="current" />
  <path d="M351.322 138.336L266.794 204.087C259.599 209.698 255.391 218.206 255.391 227.211V370.57L339.919 304.818C347.114 299.207 351.322 290.7 351.322 281.695V138.336Z" fill="current" />
  <path d="M543.23 138.336L458.702 204.087C451.507 209.698 447.299 218.206 447.299 227.211V370.57L531.827 304.818C539.022 299.207 543.23 290.7 543.23 281.695V138.336Z" fill="current" />
  </g>
</svg> 