<svg width="100" height="100" xmlns="http://www.w3.org/2000/svg">
  <!-- Polka dot pattern - uses currentColor for fill to allow CSS styling -->
  <circle cx="10" cy="10" r="4" fill="currentColor" />
  <circle cx="30" cy="10" r="4" fill="currentColor" />
  <circle cx="50" cy="10" r="4" fill="currentColor" />
  <circle cx="70" cy="10" r="4" fill="currentColor" />
  <circle cx="90" cy="10" r="4" fill="currentColor" />
  
  <circle cx="20" cy="30" r="4" fill="currentColor" />
  <circle cx="40" cy="30" r="4" fill="currentColor" />
  <circle cx="60" cy="30" r="4" fill="currentColor" />
  <circle cx="80" cy="30" r="4" fill="currentColor" />
  
  <circle cx="10" cy="50" r="4" fill="currentColor" />
  <circle cx="30" cy="50" r="4" fill="currentColor" />
  <circle cx="50" cy="50" r="4" fill="currentColor" />
  <circle cx="70" cy="50" r="4" fill="currentColor" />
  <circle cx="90" cy="50" r="4" fill="currentColor" />
  
  <circle cx="20" cy="70" r="4" fill="currentColor" />
  <circle cx="40" cy="70" r="4" fill="currentColor" />
  <circle cx="60" cy="70" r="4" fill="currentColor" />
  <circle cx="80" cy="70" r="4" fill="currentColor" />
  
  <circle cx="10" cy="90" r="4" fill="currentColor" />
  <circle cx="30" cy="90" r="4" fill="currentColor" />
  <circle cx="50" cy="90" r="4" fill="currentColor" />
  <circle cx="70" cy="90" r="4" fill="currentColor" />
  <circle cx="90" cy="90" r="4" fill="currentColor" />
</svg> 